<svg id="Capa_1" data-name="Capa 1" xmlns="http://www.w3.org/2000/svg" viewBox="0 0 569.66 235.86"><defs><style>.cls-1{fill:#4285F4;}</style></defs><title>logo_delazona</title><g id="lBigqD.tif"><path class="cls-1" d="M25.73,32.71V31c.1-.22.2-.44.29-.66,1.12-2.91,2.42-3.83,5.57-3.78,5.13.09,10.26.15,15.37.37a32.29,32.29,0,0,1,6.66.93c3,.79,5.94,2,8,4.47a46.63,46.63,0,0,1,3.44,4.63,42.37,42.37,0,0,1,5.33,12.47c.24.92.67,1.13,1.54,1.11,1.48-.05,3,.1,4.43,0A5.52,5.52,0,0,1,81.21,53Q87,60.48,92.7,68c.72,1,1.22,2.29.33,3.18a69,69,0,0,1-28.94,5.15c-5.31-.27-12.72-8.21-15-10.12a1.22,1.22,0,0,0-.23,0c.43.71,7.87,8.9,10,10.4A11.74,11.74,0,0,0,66.84,79c1.46-.12,11.92-.51,20.78-3.49,1.83-.52,3.16-.44,4,1.43.08.17,15.19,30.2,18.29,36.41s5.92,12.23,8.66,18.44c2.16,4.91,4,9.94,5.94,14.94,1.41,3.67,2.79,7.35,4.07,11.06.54,1.57,0,2.53-1.57,3.21a17.84,17.84,0,0,1-1.72.65l-6,2c.26,1,.48,1.87.75,2.75a3.58,3.58,0,0,0,.64,1.38,63.37,63.37,0,0,1,11.42,16.06A73,73,0,0,1,136.27,194a6.77,6.77,0,0,1-3.22,7.71c-1.72.81-7.85,2.58-9.07,3-7.21,2.34-14.38,4.8-21.59,7.11-2,.63-4.07.84-6.07,1.35a7.4,7.4,0,0,1-8.43-2.91c-.82-1.12-1.51-2.33-2.36-3.65a2.42,2.42,0,0,1-.26.45c-3.6,4.24-9.57,4.52-13.2.44a18.29,18.29,0,0,1-4.17-6.85,1.25,1.25,0,0,0-1.72-1c-1.34.36-2.66.74-4,1.07a1.85,1.85,0,0,1-2.41-1.94,19.81,19.81,0,0,0-.31-2.88c-.83-4-1.71-8.06-2.62-12.37-2.15.67-4.18,1.31-6.21,1.93a1.73,1.73,0,0,1-.71.08c-1.54-.24-1.65-.11-1.46,1.44a21,21,0,0,1-.49,8.38c-.86,3-3,4.38-5.85,5.11a6.06,6.06,0,0,1-6.7-2.09,20.94,20.94,0,0,1-2.37-3.27,26.27,26.27,0,0,1-2.84-15.58c.33-3.09,1.72-5.48,5.09-6.5s6.13-.45,8.35,2.32c.47.58,1,1.16,1.5,1.83.17-.32.25-.45.31-.6,1.27-2.88,2.39-5.85,4.61-8.2a.8.8,0,0,0,.25-.53c-.07-1.53-.17-3.06-.26-4.64-.43,0-.64,0-.83.07-2.09.41-4.17.84-6.26,1.23-.74.14-1.33.13-1.41-.95-.21-2.61-.42-5.23-.88-7.8-1.4-7.8-2.93-15.59-4.41-23.38-1.23-6.55-2-10.73-3.26-17.27-.2-1-.25-3.43.41-4.25a30.61,30.61,0,0,0,6.73-18.68c0-1.88-.23-3.76-.42-5.64-.48-4.92-.91-9.86-1.52-14.77-.31-2.53-1-5-1.46-7.54s-.84-5.09-1.45-7.58c-.92-3.77-1.8-7.56-3.07-11.21A53.42,53.42,0,0,0,25.73,32.71ZM66.42,50.62l.3-.43c-1.33-3.16-2.59-6.34-4-9.46-2.57-5.63-6.88-9.06-13.14-9.45-5.93-.36-11.88-.39-17.82-.51-.55,0-1.41.22-1.58.6s.22,1.12.5,1.62c1.51,2.76,3.27,5.4,4.55,8.26,1.36,3,2.27,6.27,3.37,9.37ZM116.57,172.7c-.42,1.93-.78,3.44-1.06,5a1.39,1.39,0,0,0,.29.89A20.26,20.26,0,0,1,119,191.31a10.39,10.39,0,0,1-4,8.2,9.14,9.14,0,0,1-11.41-.29,16.53,16.53,0,0,1-5-7.59c-.21-.59-.34-1.14-1.26-.88-3.11.87-6.25,1.63-9.37,2.48a1.08,1.08,0,0,0-.64.8,7.92,7.92,0,0,0,.33,2.54c1.22,3.25,2.49,6.49,3.84,9.69,1.07,2.51,3,3.27,5.55,2.48,4.89-1.51,9.79-3,14.68-4.45l16.55-5c1.72-.52,3-1.54,3-3.43a8.84,8.84,0,0,0-.79-3.38,66,66,0,0,0-8.68-14.5A70.5,70.5,0,0,0,116.57,172.7Zm-39,5.92c.83,1.18,1.32,2.46,2.25,3.1a17.52,17.52,0,0,1,6.49,9c.3.81.52,1.12,1.46.85,2.43-.69,4.9-1.27,7.35-1.88C98,189,98,189,97.26,186c0-.05-.12-.08-.18-.13-5,1.94-8.13,1-10.89-3.32-1-1.51-1.67-3.17-2.65-5.07Zm-7.36,3.44a1.92,1.92,0,0,0-2.57-1,30.85,30.85,0,0,1-3.44.85c-1.72.42-2,.71-2.14,2.42a5.57,5.57,0,0,0,.2,1.56c.37,1.72.77,3.44,1.15,5.15.34,1.55.68,3.09,1,4.62,2-.23,2-.23,1.92-2l0-.61C66.16,188.86,66.59,184.89,70.19,182.06Zm42.17-7.28a12.07,12.07,0,0,1,.74-2.33,1.94,1.94,0,0,0-.48-2.75,1.55,1.55,0,0,0-1.79-.51c-1,.33-2,.54-3.07.8-1.92.49-2.29,1-2.47,3.25A8.9,8.9,0,0,1,112.36,174.78Zm-60.86,3a18.18,18.18,0,0,0-1.5,2.17,1.79,1.79,0,0,0,0,1.47c.14.26.84.35,1.26.29,1-.16,2.08-.45,3.11-.69,3-.72,1.49-2.67,1.53-2.88Zm15.26.64c-.23-.91,0-1.35-.48-2.11-1.67.53-5.07.87-5.75,1.47-.5.16.57,1.59.65,1.75Z"/></g><path class="cls-1" d="M177.74,127.72h-1.47a16.55,16.55,0,0,1-1.6,2.67,9.28,9.28,0,0,1-2.47,2.25,12.57,12.57,0,0,1-3.61,1.56,19.38,19.38,0,0,1-5.05.58,17.88,17.88,0,0,1-7-1.36,15.74,15.74,0,0,1-5.67-4,18.89,18.89,0,0,1-3.77-6.52,26.53,26.53,0,0,1-1.36-8.87v-1.47a25,25,0,0,1,1.44-8.79,19.21,19.21,0,0,1,3.94-6.52,16.82,16.82,0,0,1,5.83-4.06,17.9,17.9,0,0,1,7-1.4,14.29,14.29,0,0,1,7.8,1.85,12.61,12.61,0,0,1,4.52,5.21h1.47V76.18h10.34v57.45H177.74Zm-10.83-2.79a10.46,10.46,0,0,0,7.84-3.08,11.12,11.12,0,0,0,3-8.08v-1a11.11,11.11,0,0,0-3-8.08,10.46,10.46,0,0,0-7.84-3.08,10.63,10.63,0,0,0-7.84,3,11,11,0,0,0-3,8.17v1a11,11,0,0,0,3,8.16A10.6,10.6,0,0,0,166.91,124.93Z"/><path class="cls-1" d="M207.87,116.64a7.89,7.89,0,0,0,.86,3.32,8.19,8.19,0,0,0,2.13,2.63,10.05,10.05,0,0,0,3.12,1.72,11.27,11.27,0,0,0,3.73.62,10.65,10.65,0,0,0,5.91-1.36,8.05,8.05,0,0,0,3-3.24l8.86,4.93a17.61,17.61,0,0,1-2.05,3.24,14.44,14.44,0,0,1-3.41,3.08,19,19,0,0,1-5.08,2.29,24.16,24.16,0,0,1-7,.91,22.63,22.63,0,0,1-8.37-1.48A18.42,18.42,0,0,1,203,129a19.4,19.4,0,0,1-4.27-6.81,25.71,25.71,0,0,1-1.51-9.11v-.49a22,22,0,0,1,1.6-8.54,19.2,19.2,0,0,1,4.39-6.56,20,20,0,0,1,6.52-4.23,21.09,21.09,0,0,1,8-1.52,20.4,20.4,0,0,1,9,1.85A19.51,19.51,0,0,1,233,98.29a18.54,18.54,0,0,1,3.61,6.24,20.55,20.55,0,0,1,1.15,6.61v5.5Zm9.76-15.51a9.8,9.8,0,0,0-6.4,2,9.16,9.16,0,0,0-3.2,4.63h19.2a7.28,7.28,0,0,0-3.07-4.76A10.85,10.85,0,0,0,217.63,101.13Z"/><path class="cls-1" d="M248.74,123.78H263V86H249.23V76.18h24.13v47.6h13.3v9.85H248.74Z"/><path class="cls-1" d="M325.56,127.72a10.62,10.62,0,0,1-4.59,5.46,14.35,14.35,0,0,1-6.9,1.6,17.34,17.34,0,0,1-6.93-1.4,16.4,16.4,0,0,1-5.71-4.1,20.17,20.17,0,0,1-3.9-6.57,25.22,25.22,0,0,1-1.43-8.78v-1.31a25.45,25.45,0,0,1,1.39-8.7,20.29,20.29,0,0,1,3.78-6.57,16.13,16.13,0,0,1,12.31-5.58,14.4,14.4,0,0,1,7,1.48,10.34,10.34,0,0,1,4.22,4.59h1.48V92.92h10.34v28.4q0,2.46,2.22,2.46h1.56v9.85h-7.06A6.46,6.46,0,0,1,328.8,132a5.59,5.59,0,0,1-1.76-4.27Zm-9.19-2.79a9.24,9.24,0,0,0,7.22-3c1.81-2,2.71-4.72,2.71-8.16v-1q0-5.18-2.71-8.17a10.21,10.21,0,0,0-14.44,0q-2.72,3-2.71,8.17v1c0,3.44.9,6.17,2.71,8.16A9.24,9.24,0,0,0,316.37,124.93Z"/><path class="cls-1" d="M386,123.78v9.85H350.51V116.39l25.61-12.47v-1.48H351V92.92h34v16.74l-25.6,12.64v1.48Z"/><path class="cls-1" d="M439.56,113.77a22,22,0,0,1-1.72,9,19.17,19.17,0,0,1-4.68,6.57,20.41,20.41,0,0,1-6.77,4.06,23.56,23.56,0,0,1-16,0,20.31,20.31,0,0,1-6.77-4.06,19.17,19.17,0,0,1-4.68-6.57,22,22,0,0,1-1.73-9v-1a21.78,21.78,0,0,1,1.73-8.9,19.53,19.53,0,0,1,4.68-6.61,19.93,19.93,0,0,1,6.77-4.1,23.56,23.56,0,0,1,16,0,20,20,0,0,1,6.77,4.1,19.53,19.53,0,0,1,4.68,6.61,21.78,21.78,0,0,1,1.72,8.9Zm-21.17,11.16a11.82,11.82,0,0,0,4.18-.74,9.91,9.91,0,0,0,5.79-5.54,11.38,11.38,0,0,0,.86-4.56v-1.64a11.36,11.36,0,0,0-.86-4.55,9.91,9.91,0,0,0-5.79-5.54,12.2,12.2,0,0,0-8.37,0,9.93,9.93,0,0,0-5.78,5.54,11.36,11.36,0,0,0-.87,4.55v1.64a11.38,11.38,0,0,0,.87,4.56,9.93,9.93,0,0,0,5.78,5.54A11.92,11.92,0,0,0,418.39,124.93Z"/><path class="cls-1" d="M460.25,133.63H449.91V92.92h10.34V99h1.47a10.8,10.8,0,0,1,4.52-5.33,13.8,13.8,0,0,1,7.3-1.89,16.23,16.23,0,0,1,5.54.94,12.25,12.25,0,0,1,4.56,2.92,13.54,13.54,0,0,1,3.08,5,21.13,21.13,0,0,1,1.11,7.23v25.77H477.48V110.48a10.33,10.33,0,0,0-2.09-6.85,7.41,7.41,0,0,0-6-2.5c-3.07,0-5.35,1-6.86,3.07a13.72,13.72,0,0,0-2.25,8.25Z"/><path class="cls-1" d="M526.48,127.72a10.62,10.62,0,0,1-4.59,5.46,14.35,14.35,0,0,1-6.9,1.6,17.34,17.34,0,0,1-6.93-1.4,16.4,16.4,0,0,1-5.71-4.1,20.17,20.17,0,0,1-3.9-6.57,25.22,25.22,0,0,1-1.43-8.78v-1.31a25.45,25.45,0,0,1,1.39-8.7,20.29,20.29,0,0,1,3.78-6.57,16.13,16.13,0,0,1,12.31-5.58,14.4,14.4,0,0,1,7,1.48,10.34,10.34,0,0,1,4.22,4.59h1.48V92.92h10.34v28.4q0,2.46,2.22,2.46h1.56v9.85h-7.06a6.46,6.46,0,0,1-4.56-1.64,5.59,5.59,0,0,1-1.76-4.27Zm-9.19-2.79a9.24,9.24,0,0,0,7.22-3c1.81-2,2.71-4.72,2.71-8.16v-1q0-5.18-2.71-8.17a10.21,10.21,0,0,0-14.44,0q-2.71,3-2.71,8.17v1c0,3.44.9,6.17,2.71,8.16A9.24,9.24,0,0,0,517.29,124.93Z"/><path class="cls-1" d="M460.1,166.4a4,4,0,0,1-.31,1.59,4.09,4.09,0,0,1-.87,1.27,4.38,4.38,0,0,1-1.29.85,4,4,0,0,1-1.55.32,3.9,3.9,0,0,1-1.57-.32,4.42,4.42,0,0,1-1.27-.85,4.09,4.09,0,0,1-.87-1.27,4,4,0,0,1-.31-1.59,4.06,4.06,0,0,1,.31-1.59,4.21,4.21,0,0,1,.87-1.27,4.39,4.39,0,0,1,1.27-.84,3.9,3.9,0,0,1,1.57-.32,4,4,0,0,1,1.55.32,4.35,4.35,0,0,1,1.29.84,4.21,4.21,0,0,1,.87,1.27A4.06,4.06,0,0,1,460.1,166.4Z"/><path class="cls-1" d="M492.84,162.13a10.19,10.19,0,0,1-3.41,6,10.76,10.76,0,0,1-7.18,2.29,12.79,12.79,0,0,1-4.34-.72,10.19,10.19,0,0,1-3.49-2.08,9.43,9.43,0,0,1-2.33-3.34,11.42,11.42,0,0,1-.85-4.54v-.5a11.72,11.72,0,0,1,.85-4.58,10,10,0,0,1,2.35-3.47A10.29,10.29,0,0,1,478,149a12,12,0,0,1,4.3-.76,10.74,10.74,0,0,1,7.13,2.28,10.05,10.05,0,0,1,3.46,6l-5.26,1.35a5.47,5.47,0,0,0-1.6-3.22,5.18,5.18,0,0,0-3.81-1.35,5.54,5.54,0,0,0-2.16.42,5.31,5.31,0,0,0-1.78,1.21,5.78,5.78,0,0,0-1.21,1.9,6.73,6.73,0,0,0-.44,2.52v.26a6.37,6.37,0,0,0,.44,2.47,5.14,5.14,0,0,0,1.21,1.8A5,5,0,0,0,480,165a6.36,6.36,0,0,0,2.16.36,5.22,5.22,0,0,0,3.74-1.22,5.86,5.86,0,0,0,1.67-3.31Z"/><path class="cls-1" d="M511.85,166.78a5.53,5.53,0,0,1-2.37,2.82,7.37,7.37,0,0,1-3.56.83,9,9,0,0,1-3.58-.72,8.57,8.57,0,0,1-2.94-2.12,10.17,10.17,0,0,1-2-3.39,12.81,12.81,0,0,1-.74-4.53V159a13.18,13.18,0,0,1,.72-4.49,10.62,10.62,0,0,1,1.94-3.38,8.3,8.3,0,0,1,6.36-2.88,7.46,7.46,0,0,1,3.62.76,5.42,5.42,0,0,1,2.18,2.37h.76v-2.54h5.34v14.65c0,.85.38,1.27,1.14,1.27h.8v5.08h-3.64a3.33,3.33,0,0,1-2.35-.84,2.87,2.87,0,0,1-.91-2.21Zm-4.74-1.44a4.76,4.76,0,0,0,3.72-1.54,6.07,6.07,0,0,0,1.4-4.22v-.5a6.07,6.07,0,0,0-1.4-4.22,5.28,5.28,0,0,0-7.45,0,6.07,6.07,0,0,0-1.4,4.22v.5a6.07,6.07,0,0,0,1.4,4.22A4.77,4.77,0,0,0,507.11,165.34Z"/><path class="cls-1" d="M523.58,148.83h6.22v-8.64h5.34v8.64h7.58v5.08h-7.58v9.57c0,.85.38,1.27,1.14,1.27H542v5.08h-8.9a3.15,3.15,0,0,1-2.35-.93,3.28,3.28,0,0,1-.91-2.37V153.91h-6.22Z"/></svg>